<?xml version="1.0" standalone="no"?>
<!DOCTYPE svg PUBLIC "-//W3C//DTD SVG 20010904//EN"
 "http://www.w3.org/TR/2001/REC-SVG-20010904/DTD/svg10.dtd">
<svg version="1.0" xmlns="http://www.w3.org/2000/svg"
 width="512.000000pt" height="512.000000pt" viewBox="0 0 512.000000 512.000000"
 preserveAspectRatio="xMidYMid meet">

<g transform="translate(0.000000,512.000000) scale(0.100000,-0.100000)"
fill="#000000" stroke="none">
<path d="M2524 5111 c-12 -5 -31 -22 -43 -37 -21 -27 -22 -36 -19 -196 3 -166
3 -168 30 -194 37 -37 99 -37 136 0 l27 26 0 175 c0 173 0 175 -25 200 -28 28
-74 39 -106 26z"/>
<path d="M1963 4890 c-30 -12 -55 -53 -56 -92 0 -37 127 -266 170 -305 64 -60
180 9 159 93 -4 15 -41 85 -83 156 -89 152 -120 176 -190 148z"/>
<path d="M3069 4885 c-28 -15 -172 -249 -185 -299 -8 -34 11 -81 42 -101 35
-22 88 -19 117 8 43 39 170 268 170 305 -2 79 -76 124 -144 87z"/>
<path d="M1711 4160 c-81 -19 -106 -58 -152 -239 -35 -134 -37 -163 -18 -215
12 -32 9 -41 -53 -177 -36 -79 -110 -255 -164 -391 l-99 -247 -53 -22 c-156
-64 -322 -229 -403 -402 -17 -36 -126 -426 -265 -942 -265 -982 -262 -970
-213 -1076 30 -64 90 -126 152 -157 23 -12 263 -81 532 -154 440 -118 498
-132 570 -132 64 0 91 5 135 26 66 31 127 88 152 144 16 38 416 1511 474 1749
58 240 9 500 -129 678 l-30 38 32 222 c33 233 55 418 67 551 6 75 8 80 45 113
41 37 53 67 100 255 25 97 20 139 -22 192 -32 40 -58 50 -315 119 -273 73
-296 78 -343 67z m289 -259 c107 -29 196 -54 198 -56 2 -1 -7 -39 -18 -82 -21
-73 -25 -81 -55 -92 -51 -18 -62 -44 -74 -181 -6 -68 -13 -125 -15 -127 -2 -2
-93 -2 -203 -1 l-200 3 74 158 c40 87 73 170 73 183 0 29 -26 84 -40 84 -5 0
0 33 11 73 27 98 27 100 42 94 7 -2 100 -28 207 -56z m15 -763 c-5 -23 -55
-387 -55 -401 0 -4 -21 -7 -46 -7 -87 0 -135 -88 -83 -154 14 -18 43 -33 92
-47 40 -12 80 -29 90 -37 27 -24 84 -148 101 -222 14 -57 22 -180 13 -180 -9
0 -1160 310 -1163 313 -8 7 59 102 108 153 68 72 143 120 214 139 36 9 67 24
80 39 12 14 57 115 100 225 l79 201 238 0 237 0 -5 -22z m-526 -1085 c322 -86
589 -159 593 -162 6 -5 -325 -1268 -335 -1278 -4 -4 -1154 303 -1178 314 -14
7 6 90 155 645 94 351 173 638 175 638 2 0 268 -70 590 -157z m-388 -1478
c318 -85 581 -155 584 -155 20 0 -26 -154 -56 -186 -45 -48 -67 -45 -574 91
-509 136 -520 139 -552 168 -41 37 -47 69 -28 149 20 83 22 88 37 88 6 0 271
-70 589 -155z"/>
<path d="M1569 2795 c-74 -40 -54 -153 32 -180 34 -11 85 13 104 49 48 90 -46
180 -136 131z"/>
<path d="M1240 1777 c-108 -24 -207 -104 -257 -205 -25 -51 -28 -67 -28 -162
0 -94 3 -111 28 -161 32 -67 119 -152 182 -180 226 -100 481 35 526 277 6 32
8 82 4 111 -9 71 -66 182 -117 228 -88 80 -225 117 -338 92z m168 -215 c65
-30 105 -126 82 -197 -26 -78 -92 -127 -170 -127 -102 0 -170 70 -170 175 0
134 130 209 258 149z"/>
<path d="M3190 4126 c-416 -109 -419 -110 -458 -186 -28 -54 -26 -80 19 -241
35 -128 49 -157 89 -184 25 -17 28 -26 34 -99 11 -126 33 -311 67 -553 l32
-222 -30 -38 c-138 -178 -187 -438 -129 -678 77 -313 460 -1718 481 -1761 27
-56 81 -104 153 -137 35 -16 67 -21 127 -21 71 0 133 14 570 132 269 73 508
142 532 154 61 31 122 93 152 157 49 106 52 94 -213 1076 -139 518 -248 905
-265 942 -81 172 -239 331 -394 398 l-62 26 -99 247 c-54 136 -128 312 -164
391 -62 137 -65 145 -53 178 19 51 16 86 -17 208 -16 61 -32 122 -36 136 -7
34 -41 76 -74 93 -58 29 -92 27 -262 -18z m173 -245 l20 -73 -22 -38 c-11 -21
-21 -49 -21 -63 0 -14 33 -97 73 -184 l74 -158 -200 -3 c-110 -1 -201 -1 -203
1 -2 2 -8 57 -14 122 -13 136 -26 169 -74 186 -31 11 -35 18 -56 92 -11 43
-20 80 -18 82 6 6 403 113 412 111 5 -1 18 -35 29 -75z m291 -922 c43 -110 88
-211 100 -225 13 -15 44 -30 80 -39 71 -19 146 -67 214 -139 49 -51 116 -146
108 -153 -3 -3 -1154 -313 -1163 -313 -11 0 0 129 17 194 20 79 69 184 99 209
9 8 48 24 88 36 49 14 78 29 92 47 52 66 4 154 -83 154 -25 0 -46 3 -46 8 0
10 -48 360 -55 395 l-4 27 237 0 237 0 79 -201z m742 -1387 c148 -553 169
-638 155 -645 -23 -11 -1174 -318 -1178 -314 -8 9 -342 1272 -337 1276 5 6
1159 319 1179 320 6 1 87 -286 181 -637z m246 -917 c10 -38 16 -84 13 -101 -6
-35 -46 -75 -90 -92 -16 -7 -241 -68 -500 -137 -507 -136 -529 -139 -574 -91
-21 22 -61 132 -61 167 0 12 48 29 213 73 116 31 376 102 577 156 201 54 374
98 384 97 16 -2 24 -17 38 -72z"/>
<path d="M3437 2790 c-55 -44 -43 -140 21 -167 83 -35 166 46 132 128 -24 56
-105 77 -153 39z"/>
<path d="M3730 1781 c-57 -11 -144 -56 -189 -96 -50 -46 -107 -157 -116 -228
-4 -29 -2 -79 4 -111 45 -243 300 -377 527 -277 62 28 149 113 181 180 25 50
28 67 28 161 0 95 -3 111 -28 162 -74 151 -248 240 -407 209z m150 -216 c112
-57 123 -221 19 -297 -127 -95 -311 35 -269 190 28 104 151 157 250 107z"/>
</g>
</svg>
